# xmcd
#
# Track frame offsets:
#	150
#	13458
#	28213
#	46788
#	65838
#	82533
#	99585
#	118840
#	134765
#	150263
#	166543
#	185828
#
# Disc length: 2684 seconds
#
# Revision: 0
# Processed by: cddbd v1.5.1PL2 Copyright (c) Steve Scherf et al.
# Submitted via: audiograbber 1.83.01
#
DISCID=9b0a7a0c
DTITLE=Fairplay - Ein Fall für Zwei
DYEAR=1992
DGENRE=Country
TTITLE0=Ein Fall für Zwei
TTITLE1=Es tut nicht mehr weh (solang J. Daniels zu mir hält)
TTITLE2=Wenn ein Mann...
TTITLE3=Highwaydesperado
TTITLE4=Außer Tresen nichts gewesen
TTITLE5=Schatten und Licht
TTITLE6=Ich bin da
TTITLE7=Jeder Mensch braucht ein Zuhaus
TTITLE8=Countrynight im Bürgerhaus
TTITLE9=Hart, hart, hart
TTITLE10=Gelegenheit macht Liebe
TTITLE11=Märchenschloß
EXTD=
EXTT0=
EXTT1=
EXTT2=
EXTT3=
EXTT4=
EXTT5=
EXTT6=
EXTT7=
EXTT8=
EXTT9=
EXTT10=
EXTT11=
PLAYORDER=
